<?xml version="1.0" standalone="no"?>
<!DOCTYPE svg PUBLIC "-//W3C//DTD SVG 20010904//EN"
 "http://www.w3.org/TR/2001/REC-SVG-20010904/DTD/svg10.dtd">
<svg version="1.0" xmlns="http://www.w3.org/2000/svg"
 width="177.000000pt" height="154.000000pt" viewBox="0 0 177.000000 154.000000"
 preserveAspectRatio="xMidYMid meet">

<g transform="translate(0.000000,154.000000) scale(0.100000,-0.100000)"
fill="#000000" stroke="none">
<path d="M782 1305 c-94 -22 -195 -81 -265 -154 -162 -167 -202 -397 -106
-610 25 -56 105 -169 119 -171 3 0 57 119 119 265 63 146 117 265 120 265 3 0
19 -32 35 -70 15 -39 32 -70 36 -70 4 0 15 19 24 41 l17 42 -52 121 c-28 67
-54 124 -58 128 -3 4 -62 -124 -130 -283 -69 -159 -128 -289 -132 -289 -8 0
-43 81 -58 135 -6 22 -11 74 -11 116 0 264 205 469 469 469 75 0 181 -23 181
-39 0 -4 -90 -216 -200 -471 -151 -348 -198 -465 -188 -471 48 -30 279 -52
293 -28 4 5 1 23 -5 40 -12 28 -14 29 -84 29 -123 0 -120 -3 -76 98 119 271
360 834 360 841 0 13 -108 58 -168 70 -69 14 -173 13 -240 -4z"/>
<path d="M1221 1175 c-12 -35 -12 -36 31 -81 87 -91 128 -194 128 -324 0 -134
-46 -245 -141 -338 -53 -53 -127 -98 -139 -86 -5 5 -32 62 -59 128 -28 65 -54
123 -57 128 -4 6 -16 -10 -27 -36 l-20 -46 60 -137 c68 -157 62 -154 165 -102
79 40 181 138 226 218 91 163 95 363 9 525 -29 55 -139 186 -156 186 -4 0 -13
-16 -20 -35z"/>
</g>
</svg>
